  0
SECTION
  2
HEADER
  9
$ACADVER
  1
AC1009
  9
$FILLMODE
 70
0
  9
$EXTMIN
 10
0.0000
 20
-0.7620
 30
0.0000
  9
$EXTMAX
 10
35.1966
 20
13.2307
 30
0.0000
  0
ENDSEC
  0
SECTION
  2
TABLES
  0
TABLE
  2
LTYPE
 70
1
  0
LTYPE
  2
CONTINUOUS
 70
64
  3
Solid line
 72
65
 73
0
 40
0
  0
ENDTAB
  0
TABLE
  2
LAYER
 70
255
  0
LAYER
  2
20
 70
64
 62
178
  6
CONTINUOUS
  0
LAYER
  2
31
 70
64
 62
251
  6
CONTINUOUS
  0
ENDTAB
  0
ENDSEC
  0
SECTION
  2
BLOCKS
  0
BLOCK
  8
0
  2
RECT
 70
64
 10
0.0000
 20
0.0000
 30
0.0000
  3
RECT
  0
SOLID
  8
0
 10
-0.5000
 20
-0.5000
 30
0.0000
 11
0.5000
 21
-0.5000
 31
0.0000
 12
-0.5000
 22
0.5000
 32
0.0000
 13
0.5000
 23
0.5000
 33
0.0000
  0
ENDBLK
  8
0
  0
BLOCK
  8
0
  2
PIE
 70
64
 10
0.0000
 20
0.0000
 30
0.0000
  3
PIE
  0
CIRCLE
  8
0
 10
0.0000
 20
0.0000
 30
0.0000
 40
0.5000
  0
ENDBLK
  8
0
  0
BLOCK
  8
0
  2
OCTAGONP
 70
64
 10
0.0000
 20
0.0000
 30
0.0000
  3
OCTAGONP
  0
POLYLINE
  8
0
 66
1
 10
0.0000
 20
0.0000
 30
0.0000
 40
0.0000
 41
0.0000
 70
1
  0
VERTEX
  8
0
 10
-0.5000
 20
-0.2071
 30
0.0000
  0
VERTEX
  8
0
 10
-0.5000
 20
0.2071
 30
0.0000
  0
VERTEX
  8
0
 10
-0.2071
 20
0.5000
 30
0.0000
  0
VERTEX
  8
0
 10
0.2071
 20
0.5000
 30
0.0000
  0
VERTEX
  8
0
 10
0.5000
 20
0.2071
 30
0.0000
  0
VERTEX
  8
0
 10
0.5000
 20
-0.2071
 30
0.0000
  0
VERTEX
  8
0
 10
0.2071
 20
-0.5000
 30
0.0000
  0
VERTEX
  8
0
 10
-0.2071
 20
-0.5000
 30
0.0000
  0
SEQEND
  8
0
  0
ENDBLK
  8
0
  0
BLOCK
  8
0
  2
SQUAREP
 70
64
 10
0.0000
 20
0.0000
 30
0.0000
  3
SQUAREP
  0
SOLID
  8
0
 10
-0.5000
 20
-0.5000
 30
0.0000
 11
0.5000
 21
-0.5000
 31
0.0000
 12
-0.5000
 22
0.5000
 32
0.0000
 13
0.5000
 23
0.5000
 33
0.0000
  0
ENDBLK
  8
0
  0
BLOCK
  8
0
  2
ROUNDP
 70
64
 10
0.0000
 20
0.0000
 30
0.0000
  3
ROUNDP
  0
CIRCLE
  8
0
 10
0.0000
 20
0.0000
 30
0.0000
 40
0.5000
  0
ENDBLK
  8
0
  0
BLOCK
  8
0
  2
ANNULUSP
 70
64
 10
0.0000
 20
0.0000
 30
0.0000
  3
ANNULUSP
  0
CIRCLE
  8
0
 10
0.0000
 20
0.0000
 30
0.0000
 40
0.5000
  0
ENDBLK
  8
0
  0
BLOCK
  8
0
  2
THERMALP
 70
64
 10
0.0000
 20
0.0000
 30
0.0000
  3
THERMALP
  0
LINE
  8
0
 10
-0.2379
 20
0.4500
 30
0.0000
 11
0.2379
 21
0.4500
 31
0.0000
  0
LINE
  8
0
 10
0.4500
 20
0.2379
 30
0.0000
 11
0.4500
 21
-0.2379
 31
0.0000
  0
LINE
  8
0
 10
0.2379
 20
-0.4500
 30
0.0000
 11
-0.2379
 21
-0.4500
 31
0.0000
  0
LINE
  8
0
 10
-0.4500
 20
-0.2379
 30
0.0000
 11
-0.4500
 21
0.2379
 31
0.0000
  0
ENDBLK
  8
0
  0
BLOCK
  8
0
  2
OCTAGONV
 70
64
 10
0.0000
 20
0.0000
 30
0.0000
  3
OCTAGONV
  0
POLYLINE
  8
0
 66
1
 10
0.0000
 20
0.0000
 30
0.0000
 40
0.0000
 41
0.0000
 70
1
  0
VERTEX
  8
0
 10
-0.5000
 20
-0.2071
 30
0.0000
  0
VERTEX
  8
0
 10
-0.5000
 20
0.2071
 30
0.0000
  0
VERTEX
  8
0
 10
-0.2071
 20
0.5000
 30
0.0000
  0
VERTEX
  8
0
 10
0.2071
 20
0.5000
 30
0.0000
  0
VERTEX
  8
0
 10
0.5000
 20
0.2071
 30
0.0000
  0
VERTEX
  8
0
 10
0.5000
 20
-0.2071
 30
0.0000
  0
VERTEX
  8
0
 10
0.2071
 20
-0.5000
 30
0.0000
  0
VERTEX
  8
0
 10
-0.2071
 20
-0.5000
 30
0.0000
  0
SEQEND
  8
0
  0
ENDBLK
  8
0
  0
BLOCK
  8
0
  2
SQUAREV
 70
64
 10
0.0000
 20
0.0000
 30
0.0000
  3
SQUAREV
  0
SOLID
  8
0
 10
-0.5000
 20
-0.5000
 30
0.0000
 11
0.5000
 21
-0.5000
 31
0.0000
 12
-0.5000
 22
0.5000
 32
0.0000
 13
0.5000
 23
0.5000
 33
0.0000
  0
ENDBLK
  8
0
  0
BLOCK
  8
0
  2
ROUNDV
 70
64
 10
0.0000
 20
0.0000
 30
0.0000
  3
ROUNDV
  0
CIRCLE
  8
0
 10
0.0000
 20
0.0000
 30
0.0000
 40
0.5000
  0
ENDBLK
  8
0
  0
BLOCK
  8
0
  2
ANNULUSV
 70
64
 10
0.0000
 20
0.0000
 30
0.0000
  3
ANNULUSV
  0
CIRCLE
  8
0
 10
0.0000
 20
0.0000
 30
0.0000
 40
0.5000
  0
ENDBLK
  8
0
  0
BLOCK
  8
0
  2
THERMALV
 70
64
 10
0.0000
 20
0.0000
 30
0.0000
  3
THERMALV
  0
LINE
  8
0
 10
-0.2379
 20
0.4500
 30
0.0000
 11
0.2379
 21
0.4500
 31
0.0000
  0
LINE
  8
0
 10
0.4500
 20
0.2379
 30
0.0000
 11
0.4500
 21
-0.2379
 31
0.0000
  0
LINE
  8
0
 10
0.2379
 20
-0.4500
 30
0.0000
 11
-0.2379
 21
-0.4500
 31
0.0000
  0
LINE
  8
0
 10
-0.4500
 20
-0.2379
 30
0.0000
 11
-0.4500
 21
0.2379
 31
0.0000
  0
ENDBLK
  8
0
  0
ENDSEC
  0
SECTION
  2
ENTITIES
  0
LINE
  8
20
 10
32.5120
 20
0.0000
 30
0.0000
 11
32.5120
 21
12.9540
 31
0.0000
  0
LINE
  8
20
 10
0.0000
 20
12.9540
 30
0.0000
 11
0.0000
 21
0.0000
 31
0.0000
  0
LINE
  8
20
 10
0.0000
 20
0.0000
 30
0.0000
 11
32.5120
 21
0.0000
 31
0.0000
  0
LINE
  8
20
 10
0.0000
 20
12.9540
 30
0.0000
 11
32.5120
 21
12.9540
 31
0.0000
  0
INSERT
  8
31
  2
RECT
 10
17.7800
 20
4.4450
 30
0.0000
 41
1.0160
 42
0.8890
 43
1.0000
 50
270.0000
  0
INSERT
  8
31
  2
RECT
 10
17.7800
 20
2.6670
 30
0.0000
 41
1.0160
 42
0.8890
 43
1.0000
 50
270.0000
  0
INSERT
  8
31
  2
RECT
 10
12.0650
 20
5.3340
 30
0.0000
 41
1.0160
 42
0.8890
 43
1.0000
 50
270.0000
  0
INSERT
  8
31
  2
RECT
 10
12.0650
 20
3.5560
 30
0.0000
 41
1.0160
 42
0.8890
 43
1.0000
 50
270.0000
  0
INSERT
  8
31
  2
RECT
 10
1.3710
 20
11.1760
 30
0.0000
 41
2.4000
 42
1.6000
 43
1.0000
 50
270.0000
  0
INSERT
  8
31
  2
RECT
 10
4.4710
 20
11.1760
 30
0.0000
 41
2.4000
 42
1.6000
 43
1.0000
 50
270.0000
  0
INSERT
  8
31
  2
RECT
 10
1.3710
 20
8.2550
 30
0.0000
 41
2.4000
 42
1.6000
 43
1.0000
 50
270.0000
  0
INSERT
  8
31
  2
RECT
 10
4.4710
 20
8.2550
 30
0.0000
 41
2.4000
 42
1.6000
 43
1.0000
 50
270.0000
  0
INSERT
  8
31
  2
RECT
 10
1.3710
 20
5.3340
 30
0.0000
 41
2.4000
 42
1.6000
 43
1.0000
 50
270.0000
  0
INSERT
  8
31
  2
RECT
 10
4.4710
 20
5.3340
 30
0.0000
 41
2.4000
 42
1.6000
 43
1.0000
 50
270.0000
  0
INSERT
  8
31
  2
RECT
 10
1.3710
 20
2.4130
 30
0.0000
 41
2.4000
 42
1.6000
 43
1.0000
 50
270.0000
  0
INSERT
  8
31
  2
RECT
 10
4.4710
 20
2.4130
 30
0.0000
 41
2.4000
 42
1.6000
 43
1.0000
 50
270.0000
  0
INSERT
  8
31
  2
RECT
 10
8.5090
 20
5.4610
 30
0.0000
 41
1.2700
 42
3.8100
 43
1.0000
 50
270.0000
  0
INSERT
  8
31
  2
RECT
 10
8.5090
 20
3.1750
 30
0.0000
 41
1.2700
 42
3.8100
 43
1.0000
 50
270.0000
  0
INSERT
  8
31
  2
RECT
 10
16.6370
 20
10.3886
 30
0.0000
 41
0.7874
 42
0.8890
 43
1.0000
 50
270.0000
  0
INSERT
  8
31
  2
RECT
 10
18.6690
 20
11.3538
 30
0.0000
 41
0.7874
 42
0.8890
 43
1.0000
 50
270.0000
  0
INSERT
  8
31
  2
RECT
 10
18.6690
 20
9.4234
 30
0.0000
 41
0.7874
 42
0.8890
 43
1.0000
 50
270.0000
  0
INSERT
  8
31
  2
RECT
 10
25.6540
 20
11.3030
 30
0.0000
 41
0.5080
 42
0.8890
 43
1.0000
 50
270.0000
  0
INSERT
  8
31
  2
RECT
 10
25.6540
 20
10.2870
 30
0.0000
 41
0.5080
 42
0.8890
 43
1.0000
 50
270.0000
  0
INSERT
  8
31
  2
RECT
 10
25.6540
 20
9.2710
 30
0.0000
 41
0.5080
 42
0.8890
 43
1.0000
 50
270.0000
  0
INSERT
  8
31
  2
RECT
 10
28.1940
 20
9.2710
 30
0.0000
 41
0.5080
 42
0.8890
 43
1.0000
 50
270.0000
  0
INSERT
  8
31
  2
RECT
 10
28.1940
 20
10.2870
 30
0.0000
 41
0.5080
 42
0.8890
 43
1.0000
 50
270.0000
  0
INSERT
  8
31
  2
RECT
 10
28.1940
 20
11.3030
 30
0.0000
 41
0.5080
 42
0.8890
 43
1.0000
 50
270.0000
  0
INSERT
  8
31
  2
RECT
 10
23.3680
 20
4.8260
 30
0.0000
 41
0.5080
 42
0.8890
 43
1.0000
 50
0.0000
  0
INSERT
  8
31
  2
RECT
 10
24.3840
 20
4.8260
 30
0.0000
 41
0.5080
 42
0.8890
 43
1.0000
 50
0.0000
  0
INSERT
  8
31
  2
RECT
 10
25.4000
 20
4.8260
 30
0.0000
 41
0.5080
 42
0.8890
 43
1.0000
 50
0.0000
  0
INSERT
  8
31
  2
RECT
 10
25.4000
 20
7.3660
 30
0.0000
 41
0.5080
 42
0.8890
 43
1.0000
 50
0.0000
  0
INSERT
  8
31
  2
RECT
 10
24.3840
 20
7.3660
 30
0.0000
 41
0.5080
 42
0.8890
 43
1.0000
 50
0.0000
  0
INSERT
  8
31
  2
RECT
 10
23.3680
 20
7.3660
 30
0.0000
 41
0.5080
 42
0.8890
 43
1.0000
 50
0.0000
  0
INSERT
  8
31
  2
RECT
 10
19.8120
 20
4.8260
 30
0.0000
 41
1.0160
 42
0.8890
 43
1.0000
 50
90.0000
  0
INSERT
  8
31
  2
RECT
 10
19.8120
 20
6.6040
 30
0.0000
 41
1.0160
 42
0.8890
 43
1.0000
 50
90.0000
  0
INSERT
  8
31
  2
RECT
 10
27.9400
 20
5.4610
 30
0.0000
 41
1.0160
 42
0.8890
 43
1.0000
 50
270.0000
  0
INSERT
  8
31
  2
RECT
 10
27.9400
 20
3.6830
 30
0.0000
 41
1.0160
 42
0.8890
 43
1.0000
 50
270.0000
  0
INSERT
  8
31
  2
RECT
 10
9.6520
 20
7.8740
 30
0.0000
 41
1.0160
 42
0.8890
 43
1.0000
 50
0.0000
  0
INSERT
  8
31
  2
RECT
 10
11.4300
 20
7.8740
 30
0.0000
 41
1.0160
 42
0.8890
 43
1.0000
 50
0.0000
  0
INSERT
  8
31
  2
RECT
 10
22.0980
 20
11.3030
 30
0.0000
 41
1.0160
 42
0.8890
 43
1.0000
 50
270.0000
  0
INSERT
  8
31
  2
RECT
 10
22.0980
 20
9.5250
 30
0.0000
 41
1.0160
 42
0.8890
 43
1.0000
 50
270.0000
  0
INSERT
  8
31
  2
RECT
 10
26.5430
 20
2.5400
 30
0.0000
 41
1.0160
 42
0.8890
 43
1.0000
 50
90.0000
  0
INSERT
  8
31
  2
RECT
 10
26.5430
 20
4.3180
 30
0.0000
 41
1.0160
 42
0.8890
 43
1.0000
 50
90.0000
  0
INSERT
  8
31
  2
RECT
 10
20.3200
 20
11.3030
 30
0.0000
 41
1.0160
 42
0.8890
 43
1.0000
 50
270.0000
  0
INSERT
  8
31
  2
RECT
 10
20.3200
 20
9.5250
 30
0.0000
 41
1.0160
 42
0.8890
 43
1.0000
 50
270.0000
  0
INSERT
  8
31
  2
RECT
 10
13.5890
 20
11.3030
 30
0.0000
 41
1.0160
 42
0.8890
 43
1.0000
 50
0.0000
  0
INSERT
  8
31
  2
RECT
 10
15.3670
 20
11.3030
 30
0.0000
 41
1.0160
 42
0.8890
 43
1.0000
 50
0.0000
  0
INSERT
  8
31
  2
RECT
 10
23.8760
 20
11.3030
 30
0.0000
 41
1.0160
 42
0.8890
 43
1.0000
 50
270.0000
  0
INSERT
  8
31
  2
RECT
 10
23.8760
 20
9.5250
 30
0.0000
 41
1.0160
 42
0.8890
 43
1.0000
 50
270.0000
  0
INSERT
  8
31
  2
RECT
 10
21.8440
 20
6.6040
 30
0.0000
 41
1.0160
 42
0.8890
 43
1.0000
 50
270.0000
  0
INSERT
  8
31
  2
RECT
 10
21.8440
 20
4.8260
 30
0.0000
 41
1.0160
 42
0.8890
 43
1.0000
 50
270.0000
  0
INSERT
  8
31
  2
RECT
 10
24.6380
 20
2.5400
 30
0.0000
 41
1.0160
 42
0.8890
 43
1.0000
 50
180.0000
  0
INSERT
  8
31
  2
RECT
 10
22.8600
 20
2.5400
 30
0.0000
 41
1.0160
 42
0.8890
 43
1.0000
 50
180.0000
  0
INSERT
  8
31
  2
RECT
 10
13.5890
 20
9.7790
 30
0.0000
 41
1.0160
 42
0.8890
 43
1.0000
 50
270.0000
  0
INSERT
  8
31
  2
RECT
 10
13.5890
 20
8.0010
 30
0.0000
 41
1.0160
 42
0.8890
 43
1.0000
 50
270.0000
  0
INSERT
  8
31
  2
RECT
 10
15.8750
 20
8.2550
 30
0.0000
 41
1.0160
 42
0.8890
 43
1.0000
 50
0.0000
  0
INSERT
  8
31
  2
RECT
 10
17.6530
 20
8.2550
 30
0.0000
 41
1.0160
 42
0.8890
 43
1.0000
 50
0.0000
  0
INSERT
  8
31
  2
RECT
 10
17.6530
 20
6.8580
 30
0.0000
 41
1.0160
 42
0.8890
 43
1.0000
 50
180.0000
  0
INSERT
  8
31
  2
RECT
 10
15.8750
 20
6.8580
 30
0.0000
 41
1.0160
 42
0.8890
 43
1.0000
 50
180.0000
  0
INSERT
  8
31
  2
RECT
 10
28.3210
 20
1.0160
 30
0.0000
 41
1.0160
 42
0.8890
 43
1.0000
 50
0.0000
  0
INSERT
  8
31
  2
RECT
 10
30.0990
 20
1.0160
 30
0.0000
 41
1.0160
 42
0.8890
 43
1.0000
 50
0.0000
  0
INSERT
  8
31
  2
RECT
 10
8.1026
 20
9.9060
 30
0.0000
 41
0.7874
 42
0.8890
 43
1.0000
 50
0.0000
  0
INSERT
  8
31
  2
RECT
 10
6.1722
 20
9.9060
 30
0.0000
 41
0.7874
 42
0.8890
 43
1.0000
 50
0.0000
  0
INSERT
  8
31
  2
RECT
 10
7.1120
 20
7.8740
 30
0.0000
 41
0.7874
 42
0.8890
 43
1.0000
 50
0.0000
  0
INSERT
  8
31
  2
RECT
 10
9.5504
 20
9.3980
 30
0.0000
 41
0.7874
 42
0.8890
 43
1.0000
 50
180.0000
  0
INSERT
  8
31
  2
RECT
 10
11.4808
 20
9.3980
 30
0.0000
 41
0.7874
 42
0.8890
 43
1.0000
 50
180.0000
  0
INSERT
  8
31
  2
RECT
 10
10.5410
 20
11.4300
 30
0.0000
 41
0.7874
 42
0.8890
 43
1.0000
 50
180.0000
  0
INSERT
  8
31
  2
RECT
 10
14.0335
 20
3.0480
 30
0.0000
 41
0.6096
 42
1.0160
 43
1.0000
 50
0.0000
  0
INSERT
  8
31
  2
RECT
 10
14.9860
 20
3.0480
 30
0.0000
 41
0.6096
 42
1.0160
 43
1.0000
 50
0.0000
  0
INSERT
  8
31
  2
RECT
 10
15.9385
 20
3.0480
 30
0.0000
 41
0.6096
 42
1.0160
 43
1.0000
 50
0.0000
  0
INSERT
  8
31
  2
RECT
 10
15.9385
 20
5.5880
 30
0.0000
 41
0.6096
 42
1.0160
 43
1.0000
 50
0.0000
  0
INSERT
  8
31
  2
RECT
 10
14.9860
 20
5.5880
 30
0.0000
 41
0.6096
 42
1.0160
 43
1.0000
 50
0.0000
  0
INSERT
  8
31
  2
RECT
 10
14.0335
 20
5.5880
 30
0.0000
 41
0.6096
 42
1.0160
 43
1.0000
 50
0.0000
  0
ENDSEC
  0
EOF
